<svg width="48" height="48" fill="none" xmlns="http://www.w3.org/2000/svg"><g clip-path="url(#a)" fill="#156963"><path d="M19.298 6.882C15.104 2.691 6.898 2.205 1.09 2.205A1.09 1.09 0 0 0 0 3.295c0 5.808.484 14.014 4.677 18.207 1.77 1.77 4.484 2.561 7.173 2.561 2.923 0 5.82-.935 7.448-2.563 3.123-3.123 3.696-10.924 0-14.618Zm-1.541 13.08c-2.332 2.33-8.808 2.728-11.537 0C2.836 16.576 2.25 9.7 2.186 4.39c5.31.063 12.186.65 15.57 4.034 2.73 2.729 2.33 9.206 0 11.536ZM46.91 6.516c-5.808 0-14.014.484-18.207 4.677-3.697 3.694-3.124 11.495 0 14.618 1.628 1.626 4.522 2.561 7.445 2.561 2.69 0 5.4-.789 7.175-2.558C47.514 21.62 48 13.414 48 7.606a1.09 1.09 0 0 0-1.09-1.09ZM41.778 24.27c-2.73 2.729-9.207 2.33-11.537 0s-2.728-8.807 0-11.536C33.626 9.349 40.503 8.763 45.812 8.7c-.063 5.311-.65 12.188-4.034 15.57Z"/><path d="M39.04 15.949c-.258-.547-.994-.735-1.537-.482-8.358 3.93-12.465 10.782-14.33 17.827-2.309-14.978-8.984-19.544-11.816-21.482-.353-.242-.627-.418-.78-.569a1.09 1.09 0 0 0-1.54 1.541c.215.214.588.482 1.091.826 3.19 2.182 11.667 7.982 11.667 31.096a1.09 1.09 0 0 0 2.18.002c0-9.34 2.508-21.652 14.457-27.266 0-.002.176-.085.176-.085.543-.257.689-.863.432-1.408Z"/></g><defs><clipPath id="a"><path fill="#fff" d="M0 0h48v48H0z"/></clipPath></defs></svg>