<svg aria-hidden="true" style="position: absolute; width: 0; height: 0; overflow: hidden;" version="1.1" xmlns="http://www.w3.org/2000/svg" xmlns:xlink="http://www.w3.org/1999/xlink">
<defs>
<symbol id="icon-dollar" viewBox="0 0 32 32">
<path  d="M16 32c8.823 0 16-7.177 16-16 0-0.009 0-0.019 0-0.029 0-2.214-0.453-4.323-1.271-6.238l0.039 0.104c-0.098-0.23-0.323-0.389-0.584-0.389-0.35 0-0.633 0.283-0.633 0.633 0 0.088 0.018 0.172 0.050 0.248l-0.002-0.004c0.717 1.667 1.133 3.608 1.133 5.646 0 0.011 0 0.021-0 0.032v-0.002c0 8.125-6.609 14.735-14.734 14.735s-14.735-6.61-14.735-14.735c0-8.125 6.61-14.735 14.735-14.735 0.005 0 0.012 0 0.018 0 1.731 0 3.392 0.299 4.934 0.849l-0.103-0.032c0.062 0.022 0.134 0.035 0.208 0.035 0.35 0 0.633-0.283 0.633-0.633 0-0.275-0.175-0.509-0.42-0.596l-0.004-0.001c-1.563-0.562-3.367-0.887-5.247-0.887-0.007 0-0.014 0-0.020 0h0.001c-8.823 0-16 7.177-16 16s7.177 16 16 16z"></path>
<path  d="M22.273 4.115c-0.113-0.105-0.264-0.169-0.43-0.169-0.35 0-0.633 0.284-0.633 0.633 0 0.166 0.064 0.317 0.169 0.43l-0-0 2.945 2.945c0.114 0.114 0.273 0.185 0.447 0.185 0.17 0 0.324-0.067 0.437-0.175l-0 0 5.191-4.958c0.132-0.117 0.215-0.287 0.215-0.476 0-0.35-0.284-0.633-0.633-0.633-0.179 0-0.341 0.074-0.456 0.194l-0 0-4.744 4.531-2.507-2.507zM16 9.88c1.493 0.002 2.704 1.212 2.706 2.705v0c0 0.349 0.283 0.633 0.633 0.633s0.633-0.283 0.633-0.633v0c-0.003-1.969-1.436-3.602-3.315-3.917l-0.023-0.003v-1.253c0-0.349-0.283-0.633-0.633-0.633s-0.633 0.283-0.633 0.633v0 1.253c-1.901 0.319-3.331 1.952-3.331 3.919 0 2.191 1.774 3.967 3.963 3.971h0c0.005-0 0.010-0 0.016-0 1.494 0 2.705 1.211 2.705 2.705 0 1.489-1.202 2.696-2.689 2.705h-0.032l-0.031 0.001c-1.48-0.019-2.673-1.223-2.675-2.705v-0c0-0.349-0.283-0.633-0.633-0.633s-0.633 0.283-0.633 0.633v0c0.003 1.969 1.436 3.603 3.315 3.917l0.023 0.003v1.405c0 0.349 0.283 0.633 0.633 0.633s0.633-0.283 0.633-0.633v0-1.405c1.908-0.312 3.347-1.949 3.347-3.921 0-2.193-1.778-3.971-3.971-3.971-0.003 0-0.006 0-0.009 0h0c-0.022 0.001-0.048 0.001-0.074 0.001-1.495 0-2.707-1.212-2.707-2.707s1.212-2.707 2.707-2.707c0.026 0 0.052 0 0.077 0.001l-0.004-0z"></path>
</symbol>
<symbol id="icon-fast" viewBox="0 0 32 32">
<path  d="M8.667 25.333h-2.667c-0.368 0-0.667-0.298-0.667-0.667s0.298-0.667 0.667-0.667v0h2.667c0.368 0 0.667 0.298 0.667 0.667s-0.298 0.667-0.667 0.667v0zM30.333 25.333h-1.667c-0.368 0-0.667-0.298-0.667-0.667s0.298-0.667 0.667-0.667v0h1.113l0.899-4.789c-0.012-2.451-2.105-4.544-4.679-4.544h-4.377l-2.121 9.333h3.832c0.368 0 0.667 0.298 0.667 0.667s-0.298 0.667-0.667 0.667v0h-4.667c-0 0-0 0-0 0-0.368 0-0.667-0.298-0.667-0.667 0-0.052 0.006-0.103 0.017-0.151l-0.001 0.005 2.424-10.667c0.069-0.3 0.334-0.52 0.65-0.52 0 0 0 0 0 0h4.909c3.308 0 6 2.692 6 6l-1.012 5.456c-0.059 0.312-0.329 0.544-0.654 0.544-0 0-0.001 0-0.001 0h0z"></path>
<path  d="M26 28c-1.837 0-3.333-1.495-3.333-3.333s1.496-3.333 3.333-3.333 3.333 1.495 3.333 3.333-1.496 3.333-3.333 3.333zM26 22.667c-1.103 0-2 0.897-2 2s0.897 2 2 2 2-0.897 2-2-0.897-2-2-2zM11.333 28c-1.837 0-3.333-1.495-3.333-3.333s1.496-3.333 3.333-3.333 3.333 1.495 3.333 3.333-1.496 3.333-3.333 3.333zM11.333 22.667c-1.103 0-2 0.897-2 2s0.897 2 2 2 2-0.897 2-2-0.897-2-2-2zM8.667 13.333h-5.333c-0.368 0-0.667-0.298-0.667-0.667s0.298-0.667 0.667-0.667v0h5.333c0.368 0 0.667 0.298 0.667 0.667s-0.298 0.667-0.667 0.667v0zM8.667 17.333h-6.667c-0.368 0-0.667-0.298-0.667-0.667s0.298-0.667 0.667-0.667v0h6.667c0.368 0 0.667 0.298 0.667 0.667s-0.298 0.667-0.667 0.667v0zM8.667 21.333h-8c-0.368 0-0.667-0.298-0.667-0.667s0.298-0.667 0.667-0.667v0h8c0.368 0 0.667 0.298 0.667 0.667s-0.298 0.667-0.667 0.667v0z"></path>
<path  d="M18.667 25.333h-4.667c-0.368 0-0.667-0.298-0.667-0.667s0.298-0.667 0.667-0.667v0h4.135l3.029-13.333h-15.164c-0.368 0-0.667-0.298-0.667-0.667s0.298-0.667 0.667-0.667v0h16c0 0 0 0 0 0 0.368 0 0.667 0.298 0.667 0.667 0 0.052-0.006 0.103-0.017 0.151l0.001-0.005-3.333 14.667c-0.069 0.3-0.334 0.52-0.65 0.52-0 0-0 0-0 0h0z"></path>
</symbol>
<symbol id="icon-headphones" viewBox="0 0 32 32">
<path  d="M16 0c-7.754 0-14.063 6.309-14.063 14.063v7.624c0.002 1.553 1.26 2.811 2.812 2.813h1.099c0.399 1.101 1.435 1.874 2.651 1.875h0c1.553-0.002 2.811-1.26 2.813-2.813v-7.623c-0.002-1.552-1.26-2.81-2.812-2.812h-0c-1.216 0.001-2.252 0.774-2.645 1.854l-0.006 0.020h-1.099c-0.329 0-0.644 0.057-0.937 0.161v-1.099c0-6.72 5.467-12.188 12.187-12.188s12.187 5.468 12.187 12.188v1.099c-0.279-0.102-0.601-0.161-0.936-0.161-0 0-0.001 0-0.001 0h-1.099c-0.399-1.101-1.435-1.874-2.651-1.875h-0c-1.553 0.002-2.811 1.26-2.813 2.813v7.625c0.003 1.553 1.262 2.811 2.816 2.811 0.29 0 0.57-0.044 0.833-0.125l-0.020 0.005c-0.363 1.164-1.43 1.995-2.692 1.996h-2.974c-0.399-1.101-1.435-1.874-2.651-1.875h-0c-1.553 0.002-2.811 1.26-2.813 2.813v0c0.002 1.552 1.26 2.81 2.812 2.812h0c1.217-0.002 2.253-0.774 2.645-1.856l0.006-0.020h2.973c2.587-0.003 4.684-2.099 4.688-4.686v-0.938h0.937c1.553-0.002 2.811-1.26 2.813-2.812v-7.625c0-7.754-6.309-14.063-14.063-14.063zM7.563 15.937c0-0.517 0.42-0.937 0.937-0.937s0.937 0.42 0.937 0.937v7.625c0 0.517-0.42 0.937-0.937 0.937s-0.937-0.42-0.937-0.937v-7.625zM4.75 16.875h0.937v5.75h-0.937c-0.517 0-0.937-0.421-0.937-0.938v-3.874c0-0.517 0.42-0.938 0.937-0.938zM16 30.125c-0.499-0.024-0.895-0.434-0.895-0.938s0.396-0.914 0.893-0.938l0.002-0c0.517 0 0.937 0.42 0.937 0.937s-0.42 0.938-0.937 0.938zM24.437 23.563c0 0.517-0.42 0.937-0.937 0.937s-0.937-0.42-0.937-0.937v-7.625c0-0.517 0.42-0.937 0.937-0.937s0.937 0.42 0.937 0.937v7.625zM28.187 21.687c0 0.517-0.42 0.938-0.937 0.938h-0.937v-5.751h0.937c0.517 0 0.937 0.421 0.937 0.938v3.875z"></path>
</symbol>
<symbol id="icon-plant" viewBox="0 0 32 32">
<path  d="M12.865 4.588c-2.796-2.794-8.267-3.118-12.139-3.118-0.401 0-0.727 0.325-0.727 0.727v0c0 3.872 0.323 9.343 3.118 12.138 1.18 1.18 2.989 1.707 4.782 1.707 1.949 0 3.88-0.623 4.965-1.709 2.082-2.082 2.464-7.283 0-9.745zM11.838 13.308c-1.555 1.553-5.872 1.819-7.691 0-2.256-2.257-2.647-6.841-2.689-10.381 3.54 0.042 8.124 0.433 10.38 2.689 1.82 1.819 1.553 6.137 0 7.691zM31.273 4.344c-3.872 0-9.343 0.323-12.138 3.118-2.465 2.463-2.083 7.663 0 9.745 1.085 1.084 3.015 1.707 4.963 1.707 1.793 0 3.6-0.526 4.783-1.705 2.794-2.796 3.118-8.267 3.118-12.139 0-0.401-0.325-0.727-0.727-0.727v0zM27.852 16.18c-1.82 1.819-6.138 1.553-7.691 0s-1.819-5.871 0-7.691c2.257-2.257 6.841-2.647 10.381-2.689-0.042 3.541-0.433 8.125-2.689 10.38z"></path>
<path  d="M26.027 10.633c-0.172-0.365-0.663-0.49-1.025-0.321-5.572 2.62-8.31 7.188-9.553 11.885-1.539-9.985-5.989-13.029-7.877-14.321-0.235-0.161-0.418-0.279-0.52-0.379-0.129-0.121-0.303-0.195-0.495-0.195-0.401 0-0.727 0.325-0.727 0.727 0 0.192 0.074 0.366 0.195 0.496l-0-0c0.143 0.143 0.392 0.321 0.727 0.551 2.127 1.455 7.778 5.321 7.778 20.731 0 0 0 0 0 0.001 0 0.401 0.325 0.727 0.727 0.727s0.726-0.325 0.727-0.726v-0c0-6.227 1.672-14.435 9.638-18.177 0-0.001 0.117-0.057 0.117-0.057 0.362-0.171 0.459-0.575 0.288-0.939z"></path>
</symbol>
<symbol id="icon-search" viewBox="0 0 32 32">
<path stroke-linejoin="round" stroke-linecap="round" stroke-miterlimit="4" stroke-width="3.2" d="M14.667 25.333c0.039 0 0.085 0.001 0.131 0.001 5.891 0 10.667-4.776 10.667-10.667s-4.776-10.667-10.667-10.667c-0.046 0-0.092 0-0.138 0.001l0.007-0c-5.835 0.074-10.537 4.821-10.537 10.666s4.702 10.593 10.53 10.666l0.007 0zM28 28l-5.8-5.8"></path>
</symbol>
<symbol id="icon-shopping-cart" viewBox="0 0 32 32">
<path stroke-linejoin="round" stroke-linecap="round" stroke-miterlimit="4" stroke-width="3.2" d="M12 29.333c0.736 0 1.333-0.597 1.333-1.333s-0.597-1.333-1.333-1.333v0c-0.736 0-1.333 0.597-1.333 1.333s0.597 1.333 1.333 1.333v0zM26.667 29.333c0.736 0 1.333-0.597 1.333-1.333s-0.597-1.333-1.333-1.333v0c-0.736 0-1.333 0.597-1.333 1.333s0.597 1.333 1.333 1.333v0zM1.333 1.333h5.334l3.573 17.854c0.252 1.232 1.327 2.146 2.616 2.146 0.018 0 0.036-0 0.054-0.001l-0.003 0h12.96c0.015 0 0.032 0 0.050 0 1.289 0 2.364-0.914 2.613-2.129l0.003-0.017 2.134-11.187h-22.667"></path>
</symbol>
<defs>
<symbol id="icon-next" viewBox="0 0 32 32">
<path  d="M6.667 17.333h15.813l-4.84 5.813c-0.226 0.272-0.335 0.623-0.303 0.976s0.204 0.678 0.476 0.904c0.272 0.226 0.623 0.335 0.976 0.303s0.678-0.204 0.904-0.476l6.667-8c0.045-0.064 0.085-0.131 0.12-0.2 0-0.067 0-0.107 0.093-0.173 0.060-0.153 0.092-0.316 0.093-0.48-0.001-0.164-0.033-0.327-0.093-0.48 0-0.067 0-0.107-0.093-0.173-0.035-0.069-0.075-0.136-0.12-0.2l-6.667-8c-0.125-0.151-0.282-0.272-0.46-0.354s-0.371-0.126-0.567-0.125c-0.311-0.001-0.613 0.108-0.853 0.307-0.135 0.112-0.247 0.249-0.329 0.405s-0.132 0.325-0.148 0.5c-0.016 0.175 0.003 0.351 0.055 0.518s0.137 0.323 0.249 0.458l4.84 5.813h-15.813c-0.354 0-0.693 0.14-0.943 0.39s-0.391 0.589-0.391 0.943 0.14 0.693 0.391 0.943c0.25 0.25 0.589 0.391 0.943 0.391z"></path>
</symbol>
<symbol id="icon-prev" viewBox="0 0 32 32">
<path d="M25.333 14.667h-15.813l4.84-5.813c0.226-0.272 0.335-0.623 0.303-0.976s-0.204-0.678-0.476-0.904c-0.272-0.226-0.623-0.335-0.976-0.303s-0.678 0.204-0.904 0.476l-6.667 8c-0.045 0.064-0.085 0.13-0.12 0.2 0 0.067 0 0.107-0.093 0.173-0.060 0.153-0.092 0.316-0.093 0.48 0.001 0.164 0.033 0.327 0.093 0.48 0 0.067 0 0.107 0.093 0.173 0.035 0.070 0.075 0.136 0.12 0.2l6.667 8c0.125 0.151 0.282 0.272 0.46 0.355s0.371 0.126 0.567 0.125c0.312 0.001 0.613-0.108 0.853-0.307 0.135-0.112 0.247-0.249 0.328-0.404s0.132-0.325 0.148-0.5c0.016-0.175-0.002-0.351-0.055-0.518s-0.137-0.323-0.249-0.458l-4.84-5.813h15.813c0.354 0 0.693-0.14 0.943-0.39s0.39-0.589 0.39-0.943-0.14-0.693-0.39-0.943c-0.25-0.25-0.589-0.391-0.943-0.391z"></path>
</symbol>
</defs>
</svg>
